<svg xmlns="http://www.w3.org/2000/svg" viewBox="0 0 512 512">
  <defs>
    <radialGradient id="space" cx="48%" cy="42%" r="70%">
      <stop offset="0" stop-color="#142945"/>
      <stop offset="1" stop-color="#030711"/>
    </radialGradient>
    <filter id="glow" x="-40%" y="-40%" width="180%" height="180%">
      <feGaussianBlur stdDeviation="7" result="blur"/>
      <feMerge><feMergeNode in="blur"/><feMergeNode in="SourceGraphic"/></feMerge>
    </filter>
  </defs>
  <rect width="512" height="512" rx="104" fill="url(#space)"/>
  <path d="M256 58 454 256 256 454 58 256Z" fill="none" stroke="#e9ad47" stroke-width="18"/>
  <circle cx="256" cy="256" r="118" fill="none" stroke="#93c7e7" stroke-opacity=".28" stroke-width="5"/>
  <path d="M345 177c-23-25-53-38-88-38-70 0-122 50-122 117s52 117 122 117c34 0 65-11 91-33v-91h-99v47h45v20c-11 7-24 10-38 10-40 0-68-28-68-70 0-41 28-70 69-70 21 0 38 7 53 22Z" fill="#f5f2e9"/>
  <circle cx="391" cy="121" r="11" fill="#e9ad47" filter="url(#glow)"/>
</svg>
